<svg width="349" height="64" viewBox="0 0 349 64" fill="none" xmlns="http://www.w3.org/2000/svg">
<g clip-path="url(#clip0_304_39)">
<path d="M76.094 52V7.58098H69.177V52H76.094ZM95.64 52.761C99.256 52.761 103.317 50.985 105.158 48.002V52H112.011V22.43H105.158V26.427C103.317 23.445 99.764 21.668 95.83 21.668C86.629 21.668 81.108 28.522 81.108 37.215C81.108 45.908 86.122 52.761 95.64 52.761ZM96.655 46.606C91.261 46.606 88.025 42.609 88.025 37.215C88.025 31.821 91.261 27.823 96.655 27.823C102.556 27.823 105.411 32.139 105.411 37.215C105.411 42.291 102.556 46.606 96.655 46.606ZM132.621 46.162C129.892 46.162 128.306 45.528 128.306 40.388V28.204H135.096V22.43H128.306V13.483H121.389V22.43H116.376V28.204H121.389V41.974C121.389 51.937 127.608 52.381 130.971 52.381C133.002 52.381 135.032 52.191 136.111 52V45.908C135.413 46.035 133.7 46.162 132.621 46.162ZM144.247 18.178C147.292 18.178 149.387 15.894 149.387 13.038C149.387 10.183 147.292 7.89798 144.247 7.89798C141.201 7.89798 139.107 10.183 139.107 13.038C139.107 15.894 141.201 18.178 144.247 18.178ZM147.673 52V22.43H140.82V52H147.673ZM168.299 46.162C165.571 46.162 163.984 45.528 163.984 40.388V28.204H170.774V22.43H163.984V13.483H157.068V22.43H152.055V28.204H157.068V41.974C157.068 51.937 163.286 52.381 166.649 52.381C168.68 52.381 170.71 52.191 171.789 52V45.908C171.091 46.035 169.378 46.162 168.299 46.162ZM187.159 52.761C191.41 52.761 194.52 51.048 196.296 47.875V52H203.213V22.43H196.296V39.119C196.296 43.37 194.393 46.86 189.126 46.86C184.621 46.86 183.098 44.068 183.098 39.309V22.429H176.181V41.022C176.181 48.954 180.686 52.761 187.159 52.761ZM232.247 26.427C230.407 23.445 226.853 21.668 222.919 21.668C213.718 21.668 208.197 28.522 208.197 37.215C208.197 45.908 213.21 52.761 222.729 52.761C226.345 52.761 230.407 50.985 232.247 48.002V52H239.1V7.58098H232.247V26.427ZM223.744 46.607C218.35 46.607 215.114 42.609 215.114 37.215C215.114 31.821 218.35 27.823 223.744 27.823C229.645 27.823 232.501 32.139 232.501 37.215C232.501 42.291 229.645 46.607 223.744 46.607ZM273.099 35.692C273.099 27.379 267.388 21.668 258.949 21.668C249.938 21.668 244.1 27.76 244.1 37.215C244.1 46.797 249.874 52.761 259.202 52.761C266.309 52.761 271.893 48.891 272.782 43.371H265.802C264.66 45.654 262.629 46.733 259.202 46.733C254.189 46.733 251.144 44.195 250.953 39.499H272.909C273.036 37.849 273.099 36.898 273.099 35.692ZM250.953 34.232C251.017 30.044 253.936 27.125 258.822 27.125C263.581 27.125 266.246 29.664 266.309 34.233H250.953V34.232ZM281.59 52.508C284.573 52.508 286.984 50.033 286.984 47.114C286.984 44.195 284.573 41.784 281.59 41.784C280.89 41.7828 280.196 41.9199 279.549 42.1873C278.902 42.4547 278.314 42.8473 277.818 43.3425C277.323 43.8376 276.931 44.4257 276.663 45.0729C276.396 45.7201 276.259 46.4137 276.26 47.114C276.26 50.033 278.608 52.508 281.59 52.508ZM303.931 52.761C311.101 52.761 315.606 49.335 315.606 43.561C315.606 39.372 312.941 36.327 308.753 35.121L302.852 33.408C300.123 32.646 299.171 31.568 299.171 29.981C299.171 28.204 300.948 26.935 303.423 26.935C306.659 26.935 308.563 28.395 308.563 30.869H315.352C315.352 25.159 310.911 21.669 303.677 21.669C297.077 21.669 292.318 25.349 292.318 30.362C292.318 34.55 294.666 37.532 298.791 38.674L304.692 40.261C307.865 41.086 308.563 42.101 308.563 43.751C308.563 45.845 306.913 47.241 304.311 47.241C300.758 47.241 298.283 45.464 298.283 42.926H291.366C291.366 48.573 296.697 52.761 303.931 52.761ZM337.5 21.668C333.122 21.668 329.695 23.382 327.855 26.554V7.58098H320.939V52H327.855V35.755C327.855 30.552 330.393 27.57 334.899 27.57C339.721 27.57 341.371 30.298 341.371 36.58V52H348.288V33.408C348.288 25.666 344.607 21.668 337.5 21.668ZM50.552 47.654L45.262 63.416H14.805L20.095 47.654H50.552ZM33.744 0.583984H14.863L0 44.875H18.88L33.744 0.583984Z" fill="white"/>
</g>
<defs>
<clipPath id="clip0_304_39">
<rect width="349" height="64" fill="white"/>
</clipPath>
</defs>
</svg>
